<svg width="13.000000" height="13.000000" viewBox="0 0 13 13" fill="none" xmlns="http://www.w3.org/2000/svg" xmlns:xlink="http://www.w3.org/1999/xlink">
	<desc>
			Created with Pixso.
	</desc>
	<defs>
		<clipPath id="clip226_437">
			<rect id="Icon-arrow" width="13.000001" height="12.999999" transform="translate(13.000000 13.000000) rotate(180.000000)" fill="white" fill-opacity="0"/>
		</clipPath>
	</defs>
	<rect id="Icon-arrow" width="13.000001" height="12.999999" transform="translate(13.000000 13.000000) rotate(180.000000)" fill="#FFFFFF" fill-opacity="0"/>
	<g clip-path="url(#clip226_437)">
		<path id="Vector" d="M6.1 11C6.05 11.05 6.01 11.11 5.99 11.18C5.96 11.24 5.95 11.31 5.95 11.39C5.96 11.46 5.97 11.53 6 11.59C6.03 11.66 6.07 11.71 6.12 11.76C6.17 11.81 6.24 11.85 6.3 11.88C6.37 11.9 6.44 11.91 6.51 11.91C6.58 11.91 6.65 11.89 6.72 11.86C6.78 11.84 6.84 11.79 6.89 11.74L11.49 6.87C11.59 6.77 11.64 6.63 11.64 6.5C11.64 6.36 11.59 6.22 11.49 6.12L6.89 1.25C6.84 1.19 6.78 1.15 6.72 1.12C6.65 1.09 6.58 1.08 6.51 1.07C6.44 1.07 6.37 1.08 6.3 1.11C6.23 1.13 6.17 1.17 6.12 1.22C6.07 1.27 6.02 1.33 5.99 1.39C5.97 1.46 5.95 1.53 5.95 1.6C5.95 1.67 5.96 1.75 5.99 1.81C6.01 1.88 6.05 1.94 6.1 1.99L10.35 6.5L6.1 11Z" fill="#FFC177" fill-opacity="1.000000" fill-rule="nonzero"/>
	</g>
</svg>
