<svg width="20" height="20" viewBox="0 0 20 20" fill="none" xmlns="http://www.w3.org/2000/svg">
<path d="M14.8125 1.0625H5.1875C2.90933 1.0625 1.0625 2.90933 1.0625 5.1875V14.8125C1.0625 17.0907 2.90933 18.9375 5.1875 18.9375H14.8125C17.0907 18.9375 18.9375 17.0907 18.9375 14.8125V5.1875C18.9375 2.90933 17.0907 1.0625 14.8125 1.0625Z" stroke="white" stroke-width="1.5" stroke-linecap="round" stroke-linejoin="round"/>
<path d="M5.875 11.375L8.69375 13.63C8.76945 13.6923 8.85809 13.737 8.95323 13.7608C9.04837 13.7846 9.14762 13.7869 9.24375 13.7675C9.3408 13.7493 9.43279 13.7104 9.51347 13.6535C9.59414 13.5965 9.6616 13.5229 9.71125 13.4375L14.125 5.875" stroke="white" stroke-width="1.5" stroke-linecap="round" stroke-linejoin="round"/>
</svg>
