<svg width="38" height="37" viewBox="0 0 38 37" fill="none" xmlns="http://www.w3.org/2000/svg">
<path d="M20.8847 0.166504C22.9472 0.172004 23.994 0.183004 24.8979 0.208671L25.2535 0.221504C25.6642 0.236171 26.0694 0.254504 26.5589 0.276504C28.5095 0.36817 29.8405 0.676171 31.0084 1.129C32.2184 1.59467 33.2377 2.22534 34.257 3.24284C35.1893 4.15931 35.9106 5.26792 36.3709 6.4915C36.8237 7.65934 37.1317 8.99034 37.2234 10.9428C37.2454 11.4305 37.2637 11.8357 37.2784 12.2482L37.2894 12.6038C37.3169 13.5058 37.3279 14.5527 37.3315 16.6152L37.3334 17.9828V20.3845C37.3379 21.7217 37.3238 23.059 37.2912 24.3958L37.2802 24.7515C37.2655 25.164 37.2472 25.5692 37.2252 26.0568C37.1335 28.0093 36.8219 29.3385 36.3709 30.5082C35.9119 31.7324 35.1904 32.8413 34.257 33.7568C33.3403 34.6888 32.2318 35.41 31.0084 35.8707C29.8405 36.3235 28.5095 36.6315 26.5589 36.7232C26.1239 36.7437 25.6887 36.762 25.2535 36.7782L24.8979 36.7892C23.994 36.8148 22.9472 36.8277 20.8847 36.8313L19.517 36.8332H17.1172C15.7794 36.8378 14.4415 36.8237 13.104 36.791L12.7484 36.78C12.3132 36.7635 11.878 36.7446 11.443 36.7232C9.49237 36.6315 8.16137 36.3235 6.99171 35.8707C5.76827 35.4112 4.66011 34.6897 3.74487 33.7568C2.81179 32.8407 2.08978 31.732 1.62921 30.5082C1.17637 29.3403 0.868374 28.0093 0.776707 26.0568C0.756282 25.6218 0.737948 25.1867 0.721707 24.7515L0.712541 24.3958C0.678756 23.059 0.663477 21.7218 0.666707 20.3845V16.6152C0.66159 15.2779 0.675036 13.9407 0.707041 12.6038L0.719874 12.2482C0.734541 11.8357 0.752874 11.4305 0.774874 10.9428C0.866541 8.99034 1.17454 7.66117 1.62737 6.4915C2.08775 5.26666 2.81119 4.15771 3.74671 3.24284C4.66171 2.31054 5.76914 1.58915 6.99171 1.129C8.16137 0.676171 9.49054 0.36817 11.443 0.276504C11.9307 0.254504 12.3377 0.236171 12.7484 0.221504L13.104 0.210504C14.4409 0.177931 15.7781 0.163874 17.1154 0.168337L20.8847 0.166504ZM19 9.33317C16.5689 9.33317 14.2373 10.2989 12.5182 12.018C10.7991 13.7371 9.83337 16.0687 9.83337 18.4998C9.83337 20.931 10.7991 23.2626 12.5182 24.9816C14.2373 26.7007 16.5689 27.6665 19 27.6665C21.4312 27.6665 23.7628 26.7007 25.4819 24.9816C27.2009 23.2626 28.1667 20.931 28.1667 18.4998C28.1667 16.0687 27.2009 13.7371 25.4819 12.018C23.7628 10.2989 21.4312 9.33317 19 9.33317ZM19 12.9998C19.7223 12.9997 20.4375 13.1419 21.1049 13.4181C21.7722 13.6944 22.3786 14.0995 22.8894 14.6101C23.4002 15.1207 23.8054 15.727 24.0819 16.3942C24.3585 17.0615 24.5008 17.7766 24.501 18.4989C24.5011 19.2212 24.3589 19.9364 24.0826 20.6037C23.8064 21.2711 23.4013 21.8775 22.8907 22.3883C22.3801 22.8991 21.7738 23.3043 21.1066 23.5808C20.4393 23.8573 19.7241 23.9997 19.0019 23.9998C17.5432 23.9998 16.1442 23.4204 15.1128 22.3889C14.0813 21.3575 13.5019 19.9585 13.5019 18.4998C13.5019 17.0411 14.0813 15.6422 15.1128 14.6107C16.1442 13.5793 17.5432 12.9998 19.0019 12.9998M28.6269 6.58317C28.0191 6.58317 27.4362 6.82461 27.0064 7.25438C26.5767 7.68415 26.3352 8.26705 26.3352 8.87484C26.3352 9.48263 26.5767 10.0655 27.0064 10.4953C27.4362 10.9251 28.0191 11.1665 28.6269 11.1665C29.2347 11.1665 29.8176 10.9251 30.2473 10.4953C30.6771 10.0655 30.9185 9.48263 30.9185 8.87484C30.9185 8.26705 30.6771 7.68415 30.2473 7.25438C29.8176 6.82461 29.2347 6.58317 28.6269 6.58317Z" fill="#447777"/>
</svg>
