<svg width="88.000000" height="35.000000" viewBox="0 0 88 35" fill="none" xmlns="http://www.w3.org/2000/svg" xmlns:xlink="http://www.w3.org/1999/xlink">
	<desc>
			Created with Pixso.
	</desc>
	<defs/>
	<path id="Vector 7" d="M46.91 0.03C38.38 1.19 30.42 3.56 22.6 7.56C15.62 11.14 7.86 15.69 2.46 22.22C0.78 24.25 -0.74 27.56 1.01 30.46C3.06 33.84 8.19 33.67 10.95 33.68C22.21 33.73 33.51 31.65 44.44 29.31C55.72 26.89 67.17 24.08 78.06 20.04C79.62 19.46 88.88 16.99 86.97 12.31C85.1 7.74 79.16 6.45 75.69 6.04C64.63 4.73 53.25 6.69 42.51 8.75C31.73 10.81 20.79 13.47 10.76 18.41C7.32 20.11 2.78 22.58 0.71 26.58C-0.8 29.51 3.22 31.05 4.83 31.51C11.39 33.41 18.65 32.6 25.15 31.97C34.45 31.08 43.68 29.32 52.23 25.14C59.94 21.36 67.53 15.99 73.59 9.17C75.53 6.98 76.85 4.77 77.94 " stroke="#FFC177" stroke-opacity="1.000000" stroke-width="1.000000" stroke-linecap="round"/>
</svg>
