<svg width="49.000000" height="49.000000" viewBox="0 0 49 49" fill="none" xmlns="http://www.w3.org/2000/svg" xmlns:xlink="http://www.w3.org/1999/xlink">
	<desc>
			Created with Pixso.
	</desc>
	<defs>
		<clipPath id="clip226_434">
			<rect id="icon-talk-fill" width="22.000000" height="22.000000" transform="translate(14.000000 14.000000)" fill="white" fill-opacity="0"/>
		</clipPath>
	</defs>
	<circle id="round" cx="24.500000" cy="24.500000" r="19.500000" stroke="#FFC177" stroke-opacity="1.000000" stroke-width="2.000000"/>
	<rect id="icon-talk-fill" width="22.000000" height="22.000000" transform="translate(14.000000 14.000000)" fill="#FFFFFF" fill-opacity="0"/>
	<g clip-path="url(#clip226_434)">
		<path id="Vector" d="M18.88 25.61L18.88 20.72L17.05 20.72C16.56 20.72 16.1 20.91 15.75 21.25C15.41 21.6 15.22 22.06 15.22 22.55L15.22 33.55C15.22 33.66 15.25 33.78 15.31 33.87C15.37 33.97 15.46 34.04 15.56 34.09C15.66 34.14 15.77 34.16 15.87 34.15C15.98 34.14 16.08 34.1 16.17 34.03L19.32 31.72L27.53 31.72C27.76 31.72 27.99 31.68 28.21 31.6C28.42 31.51 28.62 31.38 28.78 31.22C28.95 31.05 29.07 30.86 29.16 30.64C29.24 30.43 29.28 30.19 29.27 29.96L29.27 29.27L22.55 29.27C21.58 29.27 20.65 28.89 19.96 28.2C19.27 27.51 18.88 26.58 18.88 25.61Z" fill="#FFC177" fill-opacity="1.000000" fill-rule="nonzero"/>
		<path id="Vector" d="M32.33 22.25C31.62 22.25 30.92 22.08 30.29 21.77C29.66 21.46 29.11 21 28.68 20.44C28.25 19.88 27.96 19.22 27.83 18.53C27.69 17.84 27.73 17.12 27.92 16.44L22.55 16.44C22.06 16.44 21.6 16.63 21.25 16.98C20.91 17.32 20.72 17.79 20.72 18.27L20.72 25.61C20.72 26.09 20.91 26.56 21.25 26.9C21.6 27.25 22.06 27.44 22.55 27.44L30.83 27.44L33.75 29.71C33.84 29.77 33.94 29.81 34.05 29.82C34.16 29.83 34.26 29.82 34.36 29.77C34.47 29.72 34.56 29.65 34.62 29.55C34.68 29.45 34.71 29.34 34.71 29.22L34.71 21.55C34 22 33.17 22.24 32.33 22.25Z" fill="#FFC177" fill-opacity="1.000000" fill-rule="nonzero"/>
		<path id="Vector" d="M35.38 17.66C35.38 19.35 34.02 20.72 32.33 20.72C30.64 20.72 29.27 19.35 29.27 17.66C29.27 15.97 30.64 14.61 32.33 14.61C34.02 14.61 35.38 15.97 35.38 17.66Z" fill="#FFC177" fill-opacity="1.000000" fill-rule="evenodd"/>
	</g>
	<rect id="talk-block" rx="24.000000" width="48.000000" height="48.000000" transform="translate(0.500000 0.500000)" stroke="#FFC177" stroke-opacity="1.000000" stroke-width="1.000000"/>
</svg>
