<svg width="49" height="49" viewBox="0 0 49 49" fill="none" xmlns="http://www.w3.org/2000/svg">
<rect x="0.5" y="0.5" width="48" height="48" rx="24" stroke="#FF7B31"/>
<circle cx="24.5" cy="24.5" r="21.5" stroke="#FF7B31" stroke-width="2"/>
<g clip-path="url(#clip0_226_395)">
<path d="M18.8889 25.6111V20.7222H17.0556C16.5693 20.7222 16.103 20.9154 15.7592 21.2592C15.4154 21.603 15.2222 22.0693 15.2222 22.5556V33.5556C15.2231 33.6691 15.2556 33.7801 15.3161 33.8761C15.3765 33.9722 15.4625 34.0495 15.5645 34.0995C15.6626 34.1441 15.7709 34.162 15.8782 34.1512C15.9856 34.1405 16.0882 34.1016 16.1756 34.0383L19.3228 31.7222H27.5361C27.7677 31.7291 27.9983 31.6883 28.2135 31.6024C28.4287 31.5165 28.624 31.3874 28.7873 31.223C28.9506 31.0586 29.0783 30.8624 29.1627 30.6465C29.2471 30.4307 29.2863 30.1999 29.2778 29.9683V29.2778H22.5556C21.5831 29.2778 20.6505 28.8915 19.9628 28.2038C19.2752 27.5162 18.8889 26.5836 18.8889 25.6111Z" fill="#FF7B31"/>
<path d="M32.3333 22.25C31.6268 22.2517 30.9294 22.0896 30.2961 21.7764C29.6627 21.4631 29.1106 21.0074 28.683 20.4448C28.2555 19.8823 27.9642 19.2283 27.832 18.5342C27.6998 17.8401 27.7303 17.1248 27.9211 16.4445H22.5556C22.0693 16.4445 21.603 16.6376 21.2592 16.9814C20.9154 17.3252 20.7222 17.7916 20.7222 18.2778V25.6111C20.7222 26.0974 20.9154 26.5637 21.2592 26.9075C21.603 27.2513 22.0693 27.4445 22.5556 27.4445H30.8361L33.7572 29.7117C33.8441 29.7759 33.9464 29.8159 34.0537 29.8277C34.1611 29.8395 34.2696 29.8227 34.3683 29.7789C34.4723 29.7294 34.5602 29.6515 34.6218 29.5541C34.6835 29.4568 34.7163 29.3441 34.7167 29.2289V21.5595C34.0015 22.0059 33.1764 22.2449 32.3333 22.25Z" fill="#FF7B31"/>
<path d="M32.3333 20.7222C34.0209 20.7222 35.3889 19.3542 35.3889 17.6667C35.3889 15.9791 34.0209 14.6111 32.3333 14.6111C30.6458 14.6111 29.2778 15.9791 29.2778 17.6667C29.2778 19.3542 30.6458 20.7222 32.3333 20.7222Z" fill="#FF7B31"/>
</g>
<defs>
<clipPath id="clip0_226_395">
<rect width="22" height="22" fill="white" transform="translate(14 14)"/>
</clipPath>
</defs>
</svg>
